<svg width="349" height="349" viewBox="0 0 349 349" fill="none" xmlns="http://www.w3.org/2000/svg">
<g clip-path="url(#clip0_46_2)">
<path d="M174.5 43.625C210.627 43.625 239.938 72.9355 239.938 109.062C239.938 145.189 210.627 174.5 174.5 174.5C138.373 174.5 109.062 203.811 109.062 239.938C109.062 276.064 138.373 305.375 174.5 305.375C102.246 305.375 43.625 246.754 43.625 174.5C43.625 102.246 102.246 43.625 174.5 43.625ZM174.5 349C220.78 349 265.165 330.615 297.89 297.89C330.615 265.165 349 220.78 349 174.5C349 128.22 330.615 83.835 297.89 51.1099C265.165 18.3848 220.78 0 174.5 0C128.22 0 83.835 18.3848 51.1099 51.1099C18.3848 83.835 0 128.22 0 174.5C0 220.78 18.3848 265.165 51.1099 297.89C83.835 330.615 128.22 349 174.5 349ZM196.312 109.062C196.312 103.277 194.014 97.7294 189.924 93.6387C185.833 89.5481 180.285 87.25 174.5 87.25C168.715 87.25 163.167 89.5481 159.076 93.6387C154.986 97.7294 152.688 103.277 152.688 109.062C152.688 114.848 154.986 120.396 159.076 124.486C163.167 128.577 168.715 130.875 174.5 130.875C180.285 130.875 185.833 128.577 189.924 124.486C194.014 120.396 196.312 114.848 196.312 109.062ZM152.688 239.938C152.688 234.152 154.986 228.604 159.076 224.514C163.167 220.423 168.715 218.125 174.5 218.125C180.285 218.125 185.833 220.423 189.924 224.514C194.014 228.604 196.312 234.152 196.312 239.938C196.312 245.723 194.014 251.271 189.924 255.361C185.833 259.452 180.285 261.75 174.5 261.75C168.715 261.75 163.167 259.452 159.076 255.361C154.986 251.271 152.688 245.723 152.688 239.938Z" fill="white"/>
</g>
<defs>
<clipPath id="clip0_46_2">
<rect width="349" height="349" fill="white"/>
</clipPath>
</defs>
</svg>
